<?xml version="1.0" standalone="no"?>
<!DOCTYPE svg PUBLIC "-//W3C//DTD SVG 1.1//EN" "http://www.w3.org/Graphics/SVG/1.1/DTD/svg11.dtd" >
<!--
2013-9-30: Created.
-->
<svg>
<metadata>
Created by iconfont
</metadata>
<defs>

<font id="iconfont" horiz-adv-x="1024" >
  <font-face
    font-family="iconfont"
    font-weight="500"
    font-stretch="normal"
    units-per-em="1024"
    ascent="896"
    descent="-128"
  />
    <missing-glyph />
    
    <glyph glyph-name="x" unicode="x" horiz-adv-x="1001"
d="M281 543q-27 -1 -53 -1h-83q-18 0 -36.5 -6t-32.5 -18.5t-23 -32t-9 -45.5v-76h912v41q0 16 -0.5 30t-0.5 18q0 13 -5 29t-17 29.5t-31.5 22.5t-49.5 9h-133v-97h-438v97zM955 310v-52q0 -23 0.5 -52t0.5 -58t-10.5 -47.5t-26 -30t-33 -16t-31.5 -4.5q-14 -1 -29.5 -0.5
t-29.5 0.5h-32l-45 128h-439l-44 -128h-29h-34q-20 0 -45 1q-25 0 -41 9.5t-25.5 23t-13.5 29.5t-4 30v167h911zM163 247q-12 0 -21 -8.5t-9 -21.5t9 -21.5t21 -8.5q13 0 22 8.5t9 21.5t-9 21.5t-22 8.5zM316 123q-8 -26 -14 -48q-5 -19 -10.5 -37t-7.5 -25t-3 -15t1 -14.5
t9.5 -10.5t21.5 -4h37h67h81h80h64h36q23 0 34 12t2 38q-5 13 -9.5 30.5t-9.5 34.5q-5 19 -11 39h-368zM336 498v228q0 11 2.5 23t10 21.5t20.5 15.5t34 6h188q31 0 51.5 -14.5t20.5 -52.5v-227h-327z" />
    

    
    <glyph glyph-name="shouye" unicode="&#58880;" d="M1001.423238 401.408q21.504-20.48 22.528-45.056t-16.384-40.96q-19.456-17.408-45.056-16.384t-40.96 14.336q-5.12 4.096-31.232 28.672t-62.464 58.88-77.824 73.728-78.336 74.24-63.488 60.416-33.792 31.744q-32.768 29.696-64.512 28.672t-62.464-28.672q-10.24-9.216-38.4-35.328t-65.024-60.928-77.824-72.704-75.776-70.656-59.904-55.808-30.208-27.136q-15.36-12.288-40.96-13.312t-44.032 15.36q-20.48 18.432-19.456 44.544t17.408 41.472q6.144 6.144 37.888 35.84t75.776 70.656 94.72 88.064 94.208 88.064 74.752 70.144 36.352 34.304q38.912 37.888 83.968 38.4t76.8-30.208q6.144-5.12 25.6-24.064t47.616-46.08 62.976-60.928 70.656-68.096 70.144-68.096 62.976-60.928 48.128-46.592zM447.439238 549.888q25.6 23.552 61.44 25.088t64.512-25.088q3.072-3.072 18.432-17.408l38.912-35.84q22.528-21.504 50.688-48.128t57.856-53.248q68.608-63.488 153.6-142.336l0-194.56q0-22.528-16.896-39.936t-45.568-18.432l-193.536 0 0 158.72q0 33.792-31.744 33.792l-195.584 0q-17.408 0-24.064-10.24t-6.656-23.552q0-6.144-0.512-31.232t-0.512-53.76l0-73.728-187.392 0q-29.696 0-47.104 13.312t-17.408 37.888l0 203.776q83.968 76.8 152.576 139.264 28.672 26.624 57.344 52.736t52.224 47.616 39.424 36.352 19.968 18.944z"  horiz-adv-x="1029" />

    
    <glyph glyph-name="iconfontbbgxiayiji" unicode="&#58971;" d="M805.459 383.34799999999996L543.62 121.50300000000004l0.083-0.083-16.161-16.161c-12.46-12.46-32.66-12.46-45.114 0-12.46 12.454-12.46 32.653 0 45.114l233.059 233.059L481.286 617.6320000000001c-12.454 12.454-12.454 32.653 0 45.114 12.46 12.454 32.66 12.454 45.114 0l26.095-26.095-0.179-0.16L805.459 383.34799999999996zM550.255 383.34799999999996L288.416 121.50300000000004l0.083-0.083-16.161-16.161c-12.46-12.46-32.66-12.46-45.114 0-12.46 12.454-12.46 32.653 0 45.114l233.059 233.059L226.082 617.6320000000001c-12.454 12.454-12.454 32.653 0 45.114 12.46 12.454 32.66 12.454 45.114 0l26.095-26.095-0.179-0.16L550.255 383.34799999999996z"  horiz-adv-x="1024" />

    
    <glyph glyph-name="huidingbu" unicode="&#58885;" d="M868.77070222 356.03569777999996l-326.98823111 329.13635555C534.53710222 692.45383111 525.07079111 695.94908444 515.64088889 695.87626666 514.36657778 695.98549333 513.27431111 696.60444444 512 696.60444444c-5.31569778 0-10.26730667-1.23790222-14.81841778-3.2768-4.58752-1.74762667-8.95658667-4.40547555-12.67029333-8.11918222l-295.05763556-294.54791111c-14.23587555-14.19946667-14.27228445-37.24629333-0.03640888-51.48216889 7.09973333-7.13614222 16.42040889-10.70421333 25.77749333-10.70421334 9.32067555 0 18.60494222 3.56807111 25.74108444 10.63139556L475.59111111 573.39676444 475.59111111-67.98222222000004c0-20.13411555 16.31118222-36.40888889 36.40888889-36.4088889s36.40888889 16.27477333 36.40888889 36.4088889L548.40888889 575.1808l268.73400889-270.48163556c7.09973333-7.13614222 16.49322667-10.74062222 25.81390222-10.74062222s18.56853333 3.53166222 25.66826667 10.59498666C882.93376 318.71658665999996 882.97016889 341.79982222 868.77070222 356.03569777999996zM912.49777778 769.42222222L111.50222222 769.42222222C91.40451555 769.42222222 75.09333333 785.73340444 75.09333333 805.8311111099999s16.31118222 36.40888889 36.40888889 36.40888889l800.99555556 0c20.13411555 0 36.40888889-16.31118222 36.40888889-36.40888889S932.63189333 769.42222222 912.49777778 769.42222222z"  horiz-adv-x="1024" />

    
    <glyph glyph-name="wenbenbianjitianchong" unicode="&#59092;" d="M384.8192 110.3872c20.7872 25.8048 45.2608 49.4592 68.5056 73.1136 63.2832 64.4096 126.6688 128.9216 189.952 193.3312 59.0848 60.1088 118.1696 120.2176 177.152 180.3264 13.2096 13.4144 25.8048 29.7984 40.5504 41.472 15.36 12.0832 25.6 4.5056 37.5808-7.7824 10.5472-10.8544 20.7872-22.016 31.1296-32.9728 2.3552-2.56 15.9744-13.2096 15.9744-16.896 0 0-0.3072 258.4576-0.3072 258.4576 0 38.6048-31.4368 70.0416-70.0416 70.0416L135.7824 869.4784c-38.6048 0-70.0416-31.4368-70.0416-70.0416l0-812.6464c0-38.6048 31.4368-70.0416 70.0416-70.0416l183.7056-0.9216 36.4544 136.704C356.0448 52.53120000000001 364.544 85.19680000000005 384.8192 110.3872zM461.2096 463.7696L207.36 463.7696c-11.9808 0-21.7088 9.728-21.7088 21.7088 0 11.9808 9.728 21.7088 21.7088 21.7088l253.8496 0c11.9808 0 21.7088-9.728 21.7088-21.7088C483.0208 473.4976 473.1904 463.7696 461.2096 463.7696zM637.952 578.3552L207.36 578.3552c-11.9808 0-21.7088 9.728-21.7088 21.7088 0 11.9808 9.728 21.7088 21.7088 21.7088L637.952 621.7728c11.9808 0 21.7088-9.728 21.7088-21.7088C659.6608 588.0832 649.9328 578.3552 637.952 578.3552zM758.1696 693.0432000000001L207.36 693.0432000000001c-11.9808 0-21.7088 9.728-21.7088 21.7088 0 11.9808 9.728 21.7088 21.7088 21.7088l550.8096 0c11.9808 0 21.7088-9.728 21.7088-21.7088C779.8784 702.7712 770.1504 693.0432000000001 758.1696 693.0432000000001zM992.5632 394.5472L891.4944 495.616c-10.752 10.752-29.5936 10.752-40.3456 0L428.2368 72.90880000000004c-1.7408-1.7408-3.072-3.9936-3.6864-6.3488l-42.2912-151.6544c-1.3312-4.8128-0.1024-10.0352 3.2768-13.7216 2.7648-2.9696 6.656-4.7104 10.6496-4.7104 0.9216 0 1.7408 0.1024 2.6624 0.2048L562.176-72.70399999999995c2.8672 0.512 5.5296 1.9456 7.5776 3.9936l422.912 422.8096C1003.7248 365.2608 1003.7248 383.38559999999995 992.5632 394.5472zM927.1296 310.6816c-5.4272-5.4272-13.9264-5.7344-19.0464-0.6144l-100.864 100.864c-5.12 5.12-4.8128 13.6192 0.6144 19.0464 5.4272 5.4272 14.0288 5.7344 19.0464 0.6144l100.864-100.864C932.864 324.71040000000005 932.5568 316.1088 927.1296 310.6816z"  horiz-adv-x="1024" />

    
    <glyph glyph-name="guanbi1" unicode="&#58923;" d="M511.663332 745.710224c-244.277516 0-442.303638-198.026122-442.303638-442.303638s198.026122-442.303638 442.303638-442.303638 442.303638 198.026122 442.303638 442.303638S755.940848 745.710224 511.663332 745.710224zM703.118805 111.951113c-14.393825-14.393825-37.789675-14.335497-52.011584-0.11461L520.677637 242.266088 390.248052 111.837526c-14.331403-14.331403-37.517475-14.380522-52.011584 0.11461-14.393825 14.393825-14.33652 37.789675-0.11461 52.011584l130.429585 130.429585L338.121857 424.821867c-14.331403 14.331403-14.380522 37.517475 0.11461 52.011584 14.393825 14.393825 37.789675 14.335497 52.011584 0.11461l130.429585-130.429585 130.429585 130.429585c14.331403 14.331403 37.517475 14.380522 52.011584-0.11461 14.393825-14.393825 14.33652-37.789675 0.11461-52.011584L572.803831 294.392282l130.429585-130.429585C717.563796 149.632317 717.612914 126.446245 703.118805 111.951113z"  horiz-adv-x="1024" />

    
    <glyph glyph-name="icon13" unicode="&#58959;" d="M1001.597781-60.443371c-8.090259 45.458331-0.743944 155.803485-20.87954 206.753901C877.762381 407.379477 628.841102 412.598338 438.82542 395.69946c-0.403183 7.167237-0.657986 14.426571-0.942465 21.667485 0-92.096535 0-166.691463 0-174.062338 0-25.619494-21.234627-44.680619-42.22059-29.692253C378.843304 225.611643 42.719964 467.85585 14.033621 488.57473c-18.842137 13.610996-18.522865 46.064129 0 59.690474C34.682917 563.460278 372.089483 806.939615 396.522965 823.853843c17.892509 12.406564 41.35999-1.297552 41.35999-29.519314 0-10.381441 0-83.126232 0-172.486446 278.613532 22.771633 593.563644-64.835657 584.593342-434.186773C1021.085624 127.79585 1018.512009-49.04988 1001.597781-60.443371z"  horiz-adv-x="1024" />

    
    <glyph glyph-name="iconset0481" unicode="&#59240;" d="M512 853.333333C253.866667 853.333333 42.666667 644.266667 42.666667 384s211.2-469.333333 469.333333-469.333333c260.266667 0 469.333333 209.066667 469.333333 469.333333S772.266667 853.333333 512 853.333333zM512-42.66666699999996C277.333333-42.66666699999996 85.333333 149.33333300000004 85.333333 384 85.333333 618.666667 277.333333 810.666667 512 810.666667c234.666667 0 426.666667-192 426.666667-426.666667C938.666667 149.33333300000004 746.666667-42.66666699999996 512-42.66666699999996zM716.8 401.066667L716.8 401.066667l-4.266667 2.133333c0 0 0 0-2.133333 0l-292.266667 168.533333 0 0C413.866667 573.866667 409.6 576 405.333333 576c-12.8 0-21.333333-8.533333-21.333333-21.333333l0-341.333333c0-12.8 8.533333-21.333333 21.333333-21.333333 4.266667 0 8.533333 2.133333 12.8 4.266667l0 0 292.266667 168.533333c0 0 0 0 2.133333 0l4.266667 2.133333 0 0c4.266667 4.266667 8.533333 10.666667 8.533333 17.066667S721.066667 396.8 716.8 401.066667zM426.666667 249.60000000000002L426.666667 518.4 661.333333 384 426.666667 249.60000000000002z"  horiz-adv-x="1024" />

    
    <glyph glyph-name="sousuo" unicode="&#58931;" d="M401.976676 160.25103000000001c-88.721671 0-172.124196 34.635845-234.843656 97.526197-62.724577 62.86784-97.271394 146.453537-97.271394 235.358379s34.546817 172.490539 97.276511 235.361449c62.715367 62.887282 146.117892 97.522104 234.838539 97.522104 88.719624 0 172.135452-34.633798 234.881518-97.522104 62.704111-62.875003 97.235578-146.4607 97.235578-235.361449 0-88.901773-34.530444-172.487469-97.231485-235.358379C574.112128 194.88380500000005 490.6963 160.25103000000001 401.976676 160.25103000000001zM401.976676 774.795521c-75.012438 0-145.533584-29.290093-198.572568-82.474386-109.585861-109.834524-109.585861-288.539602-0.004093-398.36901 53.043077-53.188386 123.564223-82.47848 198.577684-82.47848 75.015507 0 145.553027 29.291117 198.620663 82.47848C710.126918 403.779486 710.126918 582.488657 600.593246 692.321134 547.530726 745.503381 476.992183 774.795521 401.976676 774.795521zM932.538427-62.22801700000002c-6.565533 0-13.129019 2.508123-18.132986 7.52437L606.670661 253.793496c-9.989515 10.014074-9.969049 26.231431 0.045025 36.220946s26.230408 9.969049 36.220946-0.045025l307.73478-308.497143c9.989515-10.014074 9.969049-26.231431-0.045025-36.220946C945.627537-59.735243999999966 939.081447-62.22801700000002 932.538427-62.22801700000002z"  horiz-adv-x="1024" />

    
    <glyph glyph-name="2" unicode="&#58882;" d="M512-96c-264 0-480 216-480 480s216 480 480 480 480-216 480-480S776-96 512-96zM512 804C278 804 92 618 92 384s186-420 420-420 420 186 420 420S746 804 512 804zM512 264c-18 0-30 12-30 30L482 606C482 624 494 636 512 636S542 624 542 606l0-312C542 276 530 264 512 264zM512 144L512 144c-18 0-30 12-30 30l0 0C482 192 494 204 512 204l0 0c18 0 30-12 30-30l0 0C542 156 530 144 512 144z"  horiz-adv-x="1024" />

    
    <glyph glyph-name="weibiaoti518" unicode="&#58901;" d="M226.20974437 820.9448552c0 22.03044126 14.80000245 29.76674144 32.88952263 17.19366379l630.29726681-438.09364298c18.08952016-12.57307904 18.08952016-33.14810577 0-45.7211848l-630.29726681-438.09081638c-18.08952016-12.57307904-32.88952262-4.83677747-32.88952263 17.19366378L226.20974437 820.9448552z"  horiz-adv-x="1024" />

    
    <glyph glyph-name="wuuiconsuotanhao" unicode="&#58910;" d="M512 864C248 864 32 648 32 384s216-480 480-480 480 216 480 480S776 864 512 864zM512 41.142856879999954c-37.71428531 0-68.57142844 30.85714312-68.57142844 68.57142843s30.85714312 68.57142844 68.57142844 68.57142844 68.57142844-30.85714312 68.57142844-68.57142844S549.71428531 41.142856879999954 512 41.142856879999954zM580.57142844 384c0-37.71428531-30.85714312-68.57142844-68.57142844-68.57142844s-68.57142844 30.85714312-68.57142844 68.57142844L443.42857156 658.28571469c0 37.71428531 30.85714312 68.57142844 68.57142844 68.57142844s68.57142844-30.85714312 68.57142844-68.57142844L580.57142844 384z"  horiz-adv-x="1024" />

    
    <glyph glyph-name="jiangbei" unicode="&#59050;" d="M474.70696007 314.83644041l71.73318855 0 0-163.82310506-71.73318855 0L474.70696007 314.83644041zM769.6129514 733.8031635l100.4747817 0 45.18071257 0c0 0 0-37.09613822 0-42.08611237 0.80045307-31.60624454-24.2561467-203.57529236-172.07383381-221.7072467 0 0 10.04932179 19.3896363 13.04374295 42.91809916 0 0 106.09978269 32.50008398 118.50801456 176.69414487l-106.53154236 0L769.6129514 733.8031635zM255.35959313 735.3004948299999L152.48854706 735.3004948299999 106.24298977 735.3004948299999c0 0 0-37.09613822 0-42.08611238-0.80045307-31.60624454 24.85406075-203.57529236 176.16414797-221.7072467 0 0-10.28218092 19.3896363-13.33894016 42.91809917 0 0-108.62606078 32.50008398-121.33628131 176.69414488l109.05781923 0L255.35959313 735.3004948299999zM430.45841215 357.15104526000005l160.62493248 0 0-42.28331505-160.62493248 0L430.45841215 357.15104526000005zM430.45841215 151.0130914l160.62493248 0 0-49.20820319-160.62493248 0L430.45841215 151.0130914zM311.88248045-81.70935637000002l47.0768147 183.5142458 305.02201784 0 47.07730014-183.5142458L311.88248045-81.70935637000002zM152.85238958 849.71285891l0.13510733-44.74822474 62.68249216 0c21.52126631-2.92165313 33.20229857-20.19081633 36.32649073-32.23569112 2.53161441-9.61149762 1.63243865-39.65879971 1.63243864-39.65879971l0.30126171-186.53971524c0-30.37961087 29.94300033-78.45456676 29.94300033-78.45456677 54.19842006-91.5545845 146.58499015-110.95392256 146.58499015-110.95392256l161.72858786 0c75.58433633 5.98762989 148.88156213 110.09113141 148.88156213 110.09113142 20.1289637 25.28509223 26.34581424 66.10260848 27.88001565 89.55830332 2.82705435 43.35470971 0.69615131 173.70506004 0.69615129 173.70506005s0 0 0 35.43216705c0 35.43265129 40.1572641 40.15774956 40.15726411 40.15774954l60.31751759 0 0 43.64651118L152.85238958 849.71285891zM511.47006134 479.02387222c-71.25946641 0-129.01941612 57.75437066-129.01941612 129.01941613s57.75994971 129.01941612 129.01941612 129.01941612c71.26552971 0 129.01941612-57.75437066 129.01941612-129.01941612C640.45891462 536.7782440999999 582.70405852 479.02387222 511.47006134 479.02387222zM511.47006134 693.81156833l27.88001564-56.49111085 62.31864965-9.04996819-45.11740359-43.94777167 10.64602343-62.07924179-55.72704241 29.30870288-55.75808948-29.30870288 10.6467504 62.07924179-45.08053474 43.94777167 62.31331332 9.04996819L511.47006134 693.81156833z"  horiz-adv-x="1024" />

    
    <glyph glyph-name="gift" unicode="&#58940;" d="M85.930667-54.01599999999996c0-24.576 7.125333-31.317333 29.44-31.317333l353.365333 0L468.736 384.256 85.930667 384.256 85.930667-54.01599999999996zM555.264-85.33333300000004l353.365333 0c22.357333 0 29.44 6.698667 29.44 31.317333L938.069333 384.256l-382.848 0L555.221333-85.33333300000004zM938.666667 640l-213.333333 0c51.498667 11.733333 105.898667 49.706667 112.597333 94.293333 7.850667 50.858667-52.565333 127.957333-125.653333 118.186667-87.424-12.117333-151.509333-89.258667-196.736-149.077333C470.656 762.069333 412.16 830.592 328.362667 850.517333c-81.152 19.2-136.746667-64.938667-135.253333-116.992C194.56 689.28 245.717333 651.690667 298.666667 640L85.333333 640C58.965333 640 42.666667 625.152 42.666667 597.333333l0-170.581333L469.333333 426.666667 469.333333 640l85.333333 0 0-213.333333 426.666667 0.085333L981.333333 597.333333C981.333333 625.152 964.992 640 938.666667 640zM251.648 717.8240000000001C236.885333 734.250667 246.869333 756.565333 256.128 773.418667c17.024 29.696 40.746667 47.744 81.152 30.933333 56.32-23.509333 97.792-73.216 131.584-117.802667C397.312 678.656 290.56 675.5840000000001 251.648 717.8240000000001zM562.944 687.317333c34.816 44.629333 75.221333 89.941333 131.157333 117.802667 58.581333 28.970667 113.024-49.322667 85.205333-86.912-21.418667-28.544-89.258667-31.232-125.909333-32.853333C623.317333 683.818667 592.896 684.544 562.944 687.317333z"  horiz-adv-x="1024" />

    
    <glyph glyph-name="kefu" unicode="&#58982;" d="M510.37458162 737.77812069c-147.73155154 0-267.46670252-117.22085345-267.46670252-261.85788503 0-144.62113466 119.73515099-261.85788503 267.46670252-261.85788504 147.73552576 0 267.47200237 117.23675038 267.47200237 261.85788504C777.84658399 620.55726724 658.1101074 737.77812069 510.37458162 737.77812069L510.37458162 737.77812069 510.37458162 737.77812069zM201.53059246 375.40263865L201.53059246 617.15673915c-3.38463115 0-6.74276959-0.13909425-10.05984008-0.40403574 54.80983648 118.98669039 176.88574827 201.85253959 318.94489589 201.85253959 142.05384908 0 264.13505941-82.86584921 318.93959733-201.85253959-3.31177196 0.2649415-6.66461054 0.40403575-10.05454153 0.40403574l0-241.7541005c68.21721661 0 123.55958598 54.12628661 123.55958599 120.87440033 0 45.33021881-25.52581826 84.83304251-63.27472773 105.52102368-53.11288451 149.62058708-198.12745782 257.08230876-369.16991406 257.08230874s-316.04643246-107.45642313-369.16461552-257.06641182c-37.75950656-20.68798117-63.28002627-60.19610341-63.28002628-105.5369193C77.97100647 429.52892525 133.27230923 375.40263865 201.53059246 375.40263865L201.53059246 375.40263865 201.53059246 375.40263865zM777.28225723 236.8155527c-69.8942987-63.86024869-163.72608839-102.96036096-266.90767561-102.96036096-102.98552937 0-196.66232918 38.95439387-266.51026269 102.6026891C118.85020268 173.48253838000005 36.78050357 61.38963452999997 36.78050357-90.87904579999997l950.43766854 0C987.21817211 61.67444590000002 903.61578499 173.90247106000004 777.28225723 236.8155527L777.28225723 236.8155527 777.28225723 236.8155527zM777.28225723 236.8155527"  horiz-adv-x="1024" />

    
    <glyph glyph-name="liebiao" unicode="&#58887;" d="M383.63289458 693.37324388h570.45848416c24.40359987 0 44.18690634 19.78330646 44.18690635 44.18690634s-19.78330646 44.18690634-44.18690635 44.18690632H383.63289458c-24.40359987 0-44.18690634-19.78330646-44.18690636-44.18690632s19.78330646-44.18690634 44.18690636-44.18690634z m-0.01242757-352.41405233h568.36512948c24.40359987 0 44.18690634 19.78330646 44.18690635 44.18690633s-19.78330646 44.18690634-44.18690635 44.18690635H383.62046701c-24.40359987 0-44.18690634-19.78330646-44.18690636-44.18690635s19.78330646-44.18690634 44.18690636-44.18690633z m570.47091173-265.99412943H383.63289458c-24.40359987 0-44.18690634-19.78330646-44.18690636-44.18690633s19.78330646-44.18690634 44.18690636-44.18690635h570.45848416c24.40359987 0 44.18690634 19.78330646 44.18690635 44.18690635s-19.78330646 44.18690634-44.18690635 44.18690633zM70.18202774 737.56015022a88.37381268 88.37381268 0 1 1 176.74762535 0 88.37381268 88.37381268 0 1 1-176.74762535 0zM70.18202774 385.67495993a88.37381268 88.37381268 0 1 1 176.74762535 0 88.37381268 88.37381268 0 1 1-176.74762535 0zM70.18202774 31.02808798000001a88.37381268 88.37381268 0 1 1 176.74762535 0 88.37381268 88.37381268 0 1 1-176.74762535 0z"  horiz-adv-x="1024" />

    
    <glyph glyph-name="laba_" unicode="&#58920;" d="M613.21137176-24.66014844999995c-5.21552784 0-10.41338093 1.67615664-14.65974261 4.91652976l-293.97548788 223.84055725h-266.8299984c-13.39305131 0-24.22768075 10.83315653-24.22768075 24.25566578V573.62319889c0 13.39599711 10.84346681 24.25861157 24.22915365 24.25861157H304.58350575l293.96517758 223.81109929c7.29231245 5.59700814 17.20343554 6.51314998 25.42956461 2.4022948 8.22465617-4.09759911 13.44754849-12.48132814 13.4475485-21.67515046v-802.8436844c0-9.19234941-5.20669047-17.63057563-13.4475485-21.70313549a23.84914625 23.84914625 0 0 0-10.76687618-2.53338265zM61.9856068 252.61858041999994h250.75038317a24.22178915 24.22178915 0 0 0 14.69067347-4.9651354L588.9925284 48.52809743V753.53460673L327.42666344 554.38863855a24.195277 24.195277 0 0 0-14.69067347-4.96366248H61.9856068v-296.80492277z m210.96743851 332.22956556h50.44082648v-370.7576021h-50.44082648v370.7576021z m751.52648429-183.49349303c0-20.02108725-23.34246973-36.40559212-51.847443-36.40559216H788.05454145c-28.53295831 0-51.85628038 16.38303197-51.85628038 36.40706506 0 20.02108725 23.32479495 36.44241456 51.85628038 36.44241454h184.56870777c28.51381066 0 51.85628038-16.43016467 51.85628038-36.44241454z m-110.68820038-408.25313796c-14.1589577-14.15748479-42.25004693-9.23800921-62.40664071 10.91858456l-130.51633815 130.51633817c-20.17574144 20.17574144-25.08343382 48.25357462-10.92447614 62.4110594 14.15748479 14.15748479 42.26183012 9.27630454 62.43609867-10.89943691l130.51044654-130.50897366c20.16395826-20.16395826 25.052503-48.28450545 10.89943688-62.43757156z m0.00736449 816.40022729c14.15748479-14.15748479 9.23800921-42.24857406-10.91858456-62.40664071l-130.51633814-130.51486524c-20.17574144-20.17574144-48.25210173-25.08343382-62.41105941-10.92447615-14.15748479 14.15748479-9.27630454 42.26035723 10.89943691 62.43609865l130.50897366 130.50897367c20.16395826 20.16395826 48.28450545 25.05397589 62.43757154 10.89943689z"  horiz-adv-x="1024" />

    
    <glyph glyph-name="timer" unicode="&#59230;" d="M538.66666667 782.61333333v23.36h101.33333333v53.33333334H384v-53.33333334h101.33333333v-23.36c-229.12-13.76-410.66666667-203.94666667-410.66666666-436.48 0-241.49333333 195.84-437.33333333 437.33333333-437.33333333s437.33333333 195.84 437.33333333 437.33333333c0 232.53333333-181.54666667 422.72-410.66666666 436.48z m244.90666666-708.05333333c-35.30666667-35.30666667-76.37333333-62.93333333-122.02666666-82.34666667-47.36-20.05333333-97.6-30.18666667-149.44-30.18666666s-102.18666667 10.13333333-149.44 30.18666666c-45.76 19.30666667-86.82666667 47.04-122.02666667 82.34666667-35.30666667 35.30666667-62.93333333 76.37333333-82.34666667 122.02666667-20.05333333 47.36-30.18666667 97.6-30.18666666 149.44s10.13333333 102.18666667 30.18666666 149.44c19.30666667 45.76 47.04 86.82666667 82.34666667 122.02666666s76.37333333 62.93333333 122.02666667 82.34666667c47.36 20.05333333 97.6 30.18666667 149.44 30.18666667s102.18666667-10.13333333 149.44-30.18666667c45.65333333-19.30666667 86.72-46.93333333 122.02666666-82.24s62.93333333-76.37333333 82.34666667-122.02666667c20.05333333-47.36 30.18666667-97.6 30.18666667-149.44s-10.13333333-102.18666667-30.18666667-149.44c-19.41333333-45.76-47.14666667-86.82666667-82.34666667-122.13333333zM538.66666667 656.10666667h-53.33333334v53.33333333h53.33333334v-53.33333333z m-53.33333334-620.05333334h53.33333334v-53.33333333h-53.33333334v53.33333333zM148.69333333 372.69333333h53.33333334v-53.33333333h-53.33333334v53.33333333z m726.61333334 0v-53.33333333h-53.33333334v53.33333333h53.33333334z m-355.52-30.93333333l176.96-74.66666667-20.69333334-49.17333333-200.96 84.8-79.04 291.84 51.52 13.97333333 72.21333334-266.77333333z"  horiz-adv-x="1024" />

    
    <glyph glyph-name="shijian" unicode="&#58881;" d="M512 839.111c-250.311 0-455.111-204.8-455.111-455.111S261.689-71.111 512-71.111 967.111 133.689 967.111 384 762.311 839.111 512 839.111m0-853.333c-221.867 0-398.222 176.355-398.222 398.222S290.133 782.222 512 782.222 910.222 605.867 910.222 384 733.867-14.222 512-14.222M512 384V668.444h-56.889v-341.333h284.445V384z"  horiz-adv-x="1024" />

    
    <glyph glyph-name="chenggong" unicode="&#59131;" d="M1024.025473 377.886567C1024.025473 666.746269 794.771741 896 505.91204 896 229.279204 896 0.025473 666.746269 0.025473 377.886567 0.025473 101.25373100000002 229.279204-128 505.91204-128 794.771741-128 1024.025473 101.25373100000002 1024.025473 377.886567z m-748.38607-38.208955c-4.585075 4.585075-5.094527 12.736318-1.018905 18.340298l15.283582 20.887563c4.075622 5.60398 11.20796 6.622886 16.81194 2.547263L433.060299 284.14726399999995c5.094527-4.075622 13.755224-4.075622 18.849751 0.509452l323.502487 269.500498c5.094527 4.075622 13.245771 4.075622 17.830846-0.509453l12.736318-12.226865c4.585075-4.585075 4.585075-12.226866 0-16.811941l-354.579104-348.975124c-4.585075-4.585075-12.226866-4.585075-16.81194 0l-158.949254 164.043781z"  horiz-adv-x="1029" />

    
    <glyph glyph-name="tiaozhuanqianwangyoujiantouxiangyouxiayibuxianxing" unicode="&#59666;" d="M677.319111 383.260444L287.061333 773.489778a28.444444 28.444444 0 0 0 40.248889 40.220444l410.339556-410.339555a28.444444 28.444444 0 0 0 0-40.220445L327.310222-47.217778a28.444444 28.444444 0 0 0-40.220444 40.220445l390.229333 390.229333z"  horiz-adv-x="1024" />

    
    <glyph glyph-name="shouqi-tianchong" unicode="&#58960;" d="M512 850.03377778a466.03377778 466.03377778 0 1 1 0-932.06755556A466.03377778 466.03377778 0 0 1 512 850.03377778z m182.99593008-570.96905008a38.83614815 38.83614815 0 0 0-54.91431349-0.38836148L510.21353718 406.75798282 384.30674489 279.06472770000005a38.83614815 38.83614815 0 1 0-55.30267497 54.525952l153.1697683 155.3445926a38.83614815 38.83614815 0 0 0 54.91431348 0.38836148l157.51941689-155.3445926a38.83614815 38.83614815 0 0 0 0.38836149-54.91431348z"  horiz-adv-x="1024" />

    
    <glyph glyph-name="zhankai-tianchong" unicode="&#58961;" d="M512 850.03377778a466.03377778 466.03377778 0 1 1 0-932.06755556A466.03377778 466.03377778 0 0 1 512 850.03377778z m182.60756859-416.01281896l-157.51941689-155.3445926a38.99149275 38.99149275 0 0 0-54.91431348 0.38836148l-153.1697683 155.3445926a38.83614815 38.83614815 0 1 0 55.30267497 54.525952l125.90679229-127.69325512L640.15928889 489.32363378a38.83614815 38.83614815 0 1 0 54.4482797-55.30267496z"  horiz-adv-x="1024" />

    
    <glyph glyph-name="huatong" unicode="&#58897;" d="M215.64416 34.7392l-100.736-80.7936-32.96256 32.95744 80.7936 100.74112M114.91328-64a17.89952 17.89952 0 0 0-12.69248 5.25824l-32.96256 32.95744a17.93536 17.93536 0 0 0-1.31072 23.91552l80.7936 100.736a17.9456 17.9456 0 1 0 28.00128-22.4512L106.0096-11.776l10.2144-10.2144 88.192 70.7328a17.9456 17.9456 0 0 0 22.46144-28.00128l-100.736-80.7936a17.90976 17.90976 0 0 0-11.22816-3.94752zM655.13984 334.43328l-409.5232-329.66656-112.84992 112.8448L462.4384 527.13472M245.62176-13.184a17.92 17.92 0 0 0-12.6976 5.25824l-112.84992 112.84992a17.9456 17.9456 0 0 0-1.29024 23.94112l329.66656 409.5232a17.95584 17.95584 0 0 0 27.96544-22.50752l-319.5648-396.96896 90.0608-90.0608 396.97408 319.5648a17.9456 17.9456 0 1 0 22.5024-27.96032L256.8704-9.216a17.92 17.92 0 0 0-11.24864-3.968zM529.687435 401.685714a241.55648 241.55648 0 1 1 341.606488 341.618413 241.55648 241.55648 0 1 1-341.606488-341.618413ZM700.49792 312.99072c-69.31456 0-134.48192 26.99264-183.49568 76.01152-49.01888 49.01376-76.01152 114.18112-76.01152 183.49568s26.99264 134.48704 76.01152 183.5008c49.01376 49.01376 114.176 76.0064 183.49568 76.0064 69.31456 0 134.48192-26.99264 183.49568-76.0064 49.01888-49.01376 76.0064-114.18112 76.0064-183.5008 0-69.31456-26.98752-134.48192-76.0064-183.49568-49.01376-49.01376-114.176-76.01152-183.49568-76.01152z m0 483.11808c-59.72992 0-115.88096-23.26016-158.11584-65.49504-42.23488-42.23488-65.49504-98.38592-65.49504-158.11584s23.26016-115.88096 65.49504-158.11584c42.23488-42.23488 98.39104-65.49504 158.11584-65.49504 59.72992 0 115.88096 23.26016 158.11584 65.49504 42.22976 42.22976 65.48992 98.38592 65.48992 158.11584s-23.26016 115.88608-65.48992 158.11584c-42.23488 42.23488-98.38592 65.49504-158.11584 65.49504zM317.34784 62.51008L190.5152 189.34784l-57.74848-71.73632 112.84992-112.8448zM245.62176-13.184a17.92 17.92 0 0 0-12.6976 5.25824l-112.84992 112.84992a17.9456 17.9456 0 0 0-1.29024 23.94112l57.74336 71.7312a17.9456 17.9456 0 0 0 26.67008 1.43872l126.83264-126.83776a17.9456 17.9456 0 0 0-1.4336-26.67008L256.8704-9.216a17.92 17.92 0 0 0-11.24864-3.968z m-88.77056 132.096l90.0608-90.0608 43.60704 35.10784-98.56512 98.56512-35.10272-43.61216zM871.30624 383.744a17.88416 17.88416 0 0 0-12.68736 5.25312l-341.61152 341.61152a17.9456 17.9456 0 0 0 25.37472 25.37984l341.61152-341.61152a17.9456 17.9456 0 0 0-12.68736-30.63296z"  horiz-adv-x="1024" />

    
    <glyph glyph-name="guanbi" unicode="&#58927;" d="M962.499696 889.559562l62.298728-62.298728-955.247156-955.247156-62.298728 62.298728 955.247156 955.247156ZM0.740059 833.694558l62.298728 62.298728 955.247155-955.247156-62.298727-62.298727-955.247156 955.247155Z"  horiz-adv-x="1062" />

    
    <glyph glyph-name="stop-copy" unicode="&#59409;" d="M64.23934911 831.76065089h895.52130178v-895.52130178h-895.52130178z"  horiz-adv-x="1024" />

    
    <glyph glyph-name="shijian-copy" unicode="&#59410;" d="M512 839.111c-250.311 0-455.111-204.8-455.111-455.111S261.689-71.11099999999999 512-71.11099999999999 967.111 133.68899999999996 967.111 384 762.311 839.111 512 839.111m0-853.333c-221.867 0-398.222 176.355-398.222 398.222S290.133 782.222 512 782.222 910.222 605.867 910.222 384 733.867-14.22199999999998 512-14.22199999999998M512 384L512 99.55600000000004l56.889 0 0 341.333-284.44499999 0L284.444 384z"  horiz-adv-x="1024" />

    


  </font>
</defs>
</svg>
